<svg width="16" height="16" viewBox="0 0 16 16" fill="none" xmlns="http://www.w3.org/2000/svg">
<g clip-path="url(#clip0_69_253)">
<path d="M12.0007 5.33398H6.66732C5.93094 5.33398 5.33398 5.93094 5.33398 6.66732V12.0007C5.33398 12.737 5.93094 13.334 6.66732 13.334H12.0007C12.737 13.334 13.334 12.737 13.334 12.0007V6.66732C13.334 5.93094 12.737 5.33398 12.0007 5.33398Z" stroke="#353535" stroke-width="1.5" stroke-linecap="round" stroke-linejoin="round"/>
<path d="M10.666 5.33268V3.99935C10.666 3.64573 10.5255 3.30659 10.2755 3.05654C10.0254 2.80649 9.6863 2.66602 9.33268 2.66602H3.99935C3.64573 2.66602 3.30659 2.80649 3.05654 3.05654C2.80649 3.30659 2.66602 3.64573 2.66602 3.99935V9.33268C2.66602 9.6863 2.80649 10.0254 3.05654 10.2755C3.30659 10.5255 3.64573 10.666 3.99935 10.666H5.33268" stroke="#353535" stroke-width="1.5" stroke-linecap="round" stroke-linejoin="round"/>
</g>
<defs>
<clipPath id="clip0_69_253">
<rect width="16" height="16" fill="white"/>
</clipPath>
</defs>
</svg>
