<svg width="12" height="14" viewBox="0 0 12 14" fill="none" xmlns="http://www.w3.org/2000/svg">
<path fill-rule="evenodd" clip-rule="evenodd" d="M4.76709 2.76554V1.55557H7.23285V2.76554H4.76709ZM3.28764 2.76554V1.46915C3.28764 1.07951 3.43485 0.705822 3.69689 0.430304C3.95892 0.154785 4.31432 0 4.6849 0H7.31504C7.68561 0 8.04101 0.154785 8.30305 0.430304C8.56509 0.705822 8.7123 1.07951 8.7123 1.46915V2.76554H10.5867C10.5967 2.76533 10.6067 2.76533 10.6168 2.76554H11.2603C11.6688 2.76554 12 3.11377 12 3.54333C12 3.9648 11.6812 4.30797 11.2833 4.32074L10.6845 11.8755C10.6757 12.4355 10.4602 12.9706 10.0829 13.3673C9.6976 13.7725 9.17495 14.0001 8.62999 14.0001H3.36971C2.82475 14.0001 2.3021 13.7725 1.91675 13.3673C1.53947 12.9706 1.32405 12.4355 1.3152 11.8755L0.716442 4.32073C0.318677 4.3078 0 3.96469 0 3.54333C0 3.11377 0.331187 2.76554 0.739726 2.76554H1.38287C1.39295 2.76533 1.40299 2.76533 1.41299 2.76554H3.28764ZM2.79181 11.775L2.20105 4.32111H9.79865L9.20788 11.775C9.20618 11.7965 9.20533 11.818 9.20533 11.8396C9.20533 12 9.14471 12.1539 9.03682 12.2673C8.92892 12.3808 8.78258 12.4445 8.62999 12.4445H3.36971C3.21712 12.4445 3.07078 12.3808 2.96288 12.2673C2.85499 12.1539 2.79437 12 2.79437 11.8396C2.79437 11.818 2.79352 11.7965 2.79181 11.775ZM4.68494 5.53076C5.09348 5.53076 5.42467 5.87899 5.42467 6.30855V10.4567C5.42467 10.8863 5.09348 11.2345 4.68494 11.2345C4.2764 11.2345 3.94521 10.8863 3.94521 10.4567V6.30855C3.94521 5.87899 4.2764 5.53076 4.68494 5.53076ZM8.05473 6.30855C8.05473 5.87899 7.72354 5.53076 7.315 5.53076C6.90647 5.53076 6.57528 5.87899 6.57528 6.30855V10.4567C6.57528 10.8863 6.90647 11.2345 7.315 11.2345C7.72354 11.2345 8.05473 10.8863 8.05473 10.4567V6.30855Z" fill="#353535"/>
</svg>
