<svg width="24" height="24" viewBox="0 0 24 24" fill="none" xmlns="http://www.w3.org/2000/svg">
<g clip-path="url(#clip0_69_442)">
<path d="M12 21C16.9706 21 21 16.9706 21 12C21 7.02944 16.9706 3 12 3C7.02944 3 3 7.02944 3 12C3 16.9706 7.02944 21 12 21Z" stroke="#353535" stroke-width="1.5" stroke-linecap="round" stroke-linejoin="round"/>
<path d="M12 17V17.01" stroke="#353535" stroke-width="1.5" stroke-linecap="round" stroke-linejoin="round"/>
<path d="M12 13.4992C11.9816 13.1746 12.0692 12.8527 12.2495 12.5822C12.4299 12.3117 12.6933 12.1071 13 11.9992C13.3759 11.8555 13.7132 11.6264 13.9856 11.3301C14.2579 11.0339 14.4577 10.6784 14.5693 10.2918C14.6809 9.90514 14.7013 9.49788 14.6287 9.10205C14.5562 8.70623 14.3928 8.33264 14.1513 8.0107C13.9099 7.68877 13.597 7.42727 13.2373 7.24681C12.8776 7.06634 12.4809 6.97183 12.0785 6.97071C11.6761 6.9696 11.2789 7.06191 10.9182 7.24038C10.5576 7.41884 10.2432 7.6786 10 7.99919" stroke="#353535" stroke-width="1.5" stroke-linecap="round" stroke-linejoin="round"/>
</g>
<defs>
<clipPath id="clip0_69_442">
<rect width="24" height="24" fill="white"/>
</clipPath>
</defs>
</svg>
