<svg width="16" height="16" viewBox="0 0 16 16" fill="none" xmlns="http://www.w3.org/2000/svg">
<path fill-rule="evenodd" clip-rule="evenodd" d="M3.58687 3.58687C3.69627 3.47747 3.84464 3.41602 3.99935 3.41602H5.33268C5.7469 3.41602 6.08268 3.08023 6.08268 2.66602C6.08268 2.2518 5.7469 1.91602 5.33268 1.91602H3.99935C3.44681 1.91602 2.91691 2.13551 2.52621 2.52621C2.13551 2.91691 1.91602 3.44681 1.91602 3.99935V4.66602C1.91602 5.08023 2.2518 5.41602 2.66602 5.41602C3.08023 5.41602 3.41602 5.08023 3.41602 4.66602V3.99935C3.41602 3.84464 3.47747 3.69627 3.58687 3.58687ZM3.41602 11.3325C3.41602 10.9183 3.08023 10.5825 2.66602 10.5825C2.2518 10.5825 1.91602 10.9183 1.91602 11.3325V11.9992C1.91602 12.5517 2.13551 13.0816 2.52621 13.4723C2.91691 13.863 3.44681 14.0825 3.99935 14.0825H5.33268C5.7469 14.0825 6.08268 13.7467 6.08268 13.3325C6.08268 12.9183 5.7469 12.5825 5.33268 12.5825H3.99935C3.84464 12.5825 3.69627 12.5211 3.58687 12.4117C3.47747 12.3023 3.41602 12.1539 3.41602 11.9992V11.3325ZM9.91602 2.66602C9.91602 2.2518 10.2518 1.91602 10.666 1.91602H11.9993C12.5519 1.91602 13.0818 2.13551 13.4725 2.52621C13.8632 2.91691 14.0827 3.44681 14.0827 3.99935V4.66602C14.0827 5.08023 13.7469 5.41602 13.3327 5.41602C12.9185 5.41602 12.5827 5.08023 12.5827 4.66602V3.99935C12.5827 3.84464 12.5212 3.69627 12.4118 3.58687C12.3024 3.47747 12.1541 3.41602 11.9993 3.41602H10.666C10.2518 3.41602 9.91602 3.08023 9.91602 2.66602ZM14.0827 11.3325C14.0827 10.9183 13.7469 10.5825 13.3327 10.5825C12.9185 10.5825 12.5827 10.9183 12.5827 11.3325V11.9992C12.5827 12.1539 12.5212 12.3023 12.4118 12.4117C12.3024 12.5211 12.1541 12.5825 11.9993 12.5825H10.666C10.2518 12.5825 9.91602 12.9183 9.91602 13.3325C9.91602 13.7467 10.2518 14.0825 10.666 14.0825H11.9993C12.5519 14.0825 13.0818 13.863 13.4725 13.4723C13.8632 13.0816 14.0827 12.5517 14.0827 11.9992V11.3325ZM2.58252 7.33252C2.58252 6.91831 2.91831 6.58252 3.33252 6.58252H3.99919C4.4134 6.58252 4.74919 6.91831 4.74919 7.33252V8.66585C4.74919 9.08007 4.4134 9.41585 3.99919 9.41585H3.33252C2.91831 9.41585 2.58252 9.08007 2.58252 8.66585V7.33252ZM7.41602 7.33252C7.41602 6.91831 7.08023 6.58252 6.66602 6.58252C6.2518 6.58252 5.91602 6.91831 5.91602 7.33252V8.66585C5.91602 9.08007 6.2518 9.41585 6.66602 9.41585C7.08023 9.41585 7.41602 9.08007 7.41602 8.66585V7.33252ZM8.58252 7.33252C8.58252 6.91831 8.91831 6.58252 9.33252 6.58252H9.99919C10.4134 6.58252 10.7492 6.91831 10.7492 7.33252V8.66585C10.7492 9.08007 10.4134 9.41585 9.99919 9.41585H9.33252C8.91831 9.41585 8.58252 9.08007 8.58252 8.66585V7.33252ZM13.416 7.33252C13.416 6.91831 13.0802 6.58252 12.666 6.58252C12.2518 6.58252 11.916 6.91831 11.916 7.33252V8.66585C11.916 9.08007 12.2518 9.41585 12.666 9.41585C13.0802 9.41585 13.416 9.08007 13.416 8.66585V7.33252Z" fill="#353535"/>
</svg>
