<svg width="41" height="40" viewBox="0 0 41 40" fill="none" xmlns="http://www.w3.org/2000/svg">
<g clip-path="url(#clip0_64_527)">
<path d="M23.8299 39.1468C23.6163 39.3213 23.3879 39.4959 23.1595 39.6558C23.0859 39.7067 23.0417 39.7359 23.0343 39.7431C22.9745 39.7863 22.9022 39.8092 22.8281 39.8086C22.769 39.8093 22.7106 39.7957 22.6579 39.7691C22.6053 39.7425 22.5601 39.7036 22.5261 39.6558C22.4704 39.5764 22.4485 39.4787 22.4651 39.3835C22.4816 39.2883 22.5352 39.2034 22.6145 39.1468L22.7691 39.0377C22.8871 38.9504 23.0638 38.8268 23.2848 38.6522C24.6583 37.5717 25.8151 36.2471 26.6955 34.7468C29.8778 29.314 28.6034 22.1941 23.6605 17.8086C21.6865 16.1025 19.4734 14.6866 17.0896 13.6049C27.9699 21.8159 26.0988 29.0522 26.0104 29.3722C25.9889 29.4545 25.9387 29.5265 25.8686 29.5758C25.7985 29.625 25.7131 29.6482 25.6273 29.6413C18.9681 29.0959 14.0399 26.6304 10.9754 22.3104C4.80972 13.6195 8.40449 0.208594 8.44136 0.0776722C8.46085 0.00136173 8.50539 -0.0664277 8.56802 -0.115108C8.63065 -0.163788 8.70785 -0.190618 8.78756 -0.191406H8.79495C8.87358 -0.19139 8.95019 -0.166739 9.01373 -0.121002C9.07726 -0.0752648 9.12446 -0.0108013 9.14853 0.0631079C9.16328 0.121315 10.9975 5.78677 19.0933 8.09954C23.4495 9.28714 27.3657 11.6913 30.3713 15.0231C31.0004 15.7432 31.5169 16.5522 31.9036 17.4231C36.6034 28.0413 26.7765 36.8268 23.8299 39.1468Z" fill="#9B6BDE"/>
</g>
<defs>
<clipPath id="clip0_64_527">
<rect width="40.5157" height="40" fill="white"/>
</clipPath>
</defs>
</svg>
